<svg width="1136" height="980" xmlns="http://www.w3.org/2000/svg" xmlns:xlink="http://www.w3.org/1999/xlink" xml:space="preserve" overflow="hidden"><g transform="translate(-150 -194)"><path d="M168.5 1163.5 718 215.5 1267.5 1163.5Z" stroke="#000000" stroke-width="20.625" stroke-miterlimit="8" fill="#FBFF00" fill-rule="evenodd"/><g><g><g><path d="M94.3197 110.514C90.3806 113.796 88.1922 119.924 89.5053 124.52 90.1618 126.27 105.043 152.75 122.769 183.387 140.495 214.025 154.719 239.41 154.501 239.629 154.282 239.848 128.896 225.404 98.04 207.46 43.9867 176.166 41.5795 175.071 35.6708 175.071 30.1998 174.853 29.1056 175.29 26.0419 178.573 21.8839 183.387 20.7897 187.108 22.5404 192.797 24.2912 198.487 20.5709 196.08 85.785 233.72L137.431 263.483 113.796 264.139C88.8488 264.796 85.3473 265.452 82.0647 270.267 77.4691 277.269 79.4387 286.461 86.2227 290.619 89.7241 292.588 91.9125 293.026 116.423 293.026 132.398 293.026 142.246 293.464 141.808 294.12 141.151 294.777 115.328 309.876 84.2531 327.602 53.3968 345.328 26.6984 361.304 25.3854 362.836 19.6955 369.182 21.2274 379.467 28.668 384.063 36.5462 388.877 30.6375 391.722 118.83 340.733 138.525 329.353 154.719 320.162 154.938 320.162 155.157 320.381 140.714 345.766 122.769 376.622 105.043 407.479 89.943 434.177 89.5053 435.928 87.098 444.244 93.8821 452.997 102.417 452.997 111.608 452.997 111.827 452.997 147.498 390.628L180.761 332.636 181.637 358.896C182.293 387.783 182.512 389.096 188.858 393.035 193.673 395.88 198.487 395.88 203.083 393.035 209.21 389.315 209.648 387.783 210.305 361.085L210.961 336.575 243.13 392.598C277.707 452.779 277.926 452.997 287.117 452.997 295.652 452.997 302.436 444.244 300.029 435.928 299.591 434.177 284.491 407.479 266.765 376.622 249.039 345.766 234.377 320.381 234.596 320.162 234.815 319.943 254.072 330.885 277.488 344.453 349.486 386.033 349.705 386.251 353.425 386.251 365.243 386.251 371.808 371.37 363.93 362.836 362.617 361.304 344.672 350.581 324.32 338.763L287.336 317.317 242.036 316.879C197.174 316.442 196.737 316.442 190.609 313.816 182.95 310.314 173.977 300.904 171.57 293.464 166.318 277.926 172.883 260.638 187.326 252.103 194.767 247.945 203.958 247.07 243.568 247.07L279.895 247.288 319.505 224.529C341.17 212.055 360.428 200.676 362.179 199.581 365.681 196.955 368.307 189.953 367.212 185.576 366.775 184.044 365.024 180.761 363.273 178.792 360.21 175.509 359.334 175.071 353.644 175.071 347.736 175.29 345.547 176.384 291.494 207.679 260.638 225.623 235.033 240.067 234.815 239.848 234.596 239.629 249.039 214.244 266.765 183.606 284.71 152.969 299.372 126.489 299.81 124.957 301.123 120.362 299.153 114.234 295.214 110.733 292.369 108.107 290.619 107.669 285.804 107.669 280.99 107.669 279.458 108.325 277.051 110.733 275.3 112.483 259.762 138.744 242.255 168.944L210.523 223.873 209.867 197.612C209.21 169.163 208.992 167.631 202.864 164.348 196.08 160.847 187.764 162.598 183.825 168.287 182.074 170.913 181.637 174.853 181.199 199.363L180.542 227.593 147.935 170.257C129.772 138.525 113.359 111.608 111.608 110.295 107.231 106.356 98.9154 106.575 94.3197 110.514Z" transform="matrix(-1.00138 1.22633e-16 -1.22465e-16 -1 962 1154.92)"/><path d="M200.238 262.826C195.642 263.92 191.484 266.765 188.202 271.361 186.451 273.768 185.795 276.175 185.795 281.865 185.795 287.555 186.451 289.962 188.202 292.369 191.484 296.965 195.642 299.81 200.895 300.904 203.521 301.561 276.175 301.998 372.027 301.998L538.345 301.998 538.345 281.865 538.345 261.732 371.151 261.951C279.239 261.951 202.426 262.388 200.238 262.826Z" transform="matrix(-1.00138 1.22633e-16 -1.22465e-16 -1 962 1154.92)"/></g></g></g></g></svg>